<svg xmlns="http://www.w3.org/2000/svg" xmlns:xlink="http://www.w3.org/1999/xlink" width="75" height="23" viewBox="0 0 75 23">
    <defs>
        <path id="a" d="M.233.013H20.86v19.785H.233z"/>
    </defs>
    <g fill="none" fill-rule="evenodd">
        <path fill="#014584" d="M53.45 3.204l-6.128 12.51a.357.357 0 0 1-.644 0l-6.133-12.51A.353.353 0 0 0 40.23 3h-2.965c-.2 0-.33.23-.234.42L46.687 22.8a.344.344 0 0 0 .626 0l9.655-19.378c.095-.19-.033-.42-.234-.42h-2.97a.353.353 0 0 0-.314.203"/>
        <g transform="translate(54)">
            <mask id="b" fill="#fff">
                <use xlink:href="#a"/>
            </mask>
            <path fill="#014584" d="M3.894 19.597l6.32-12.376a.375.375 0 0 1 .665 0l6.326 12.376c.063.124.188.201.324.201h3.057c.208 0 .34-.228.242-.416L10.87.212a.361.361 0 0 0-.646 0L.266 19.381c-.098.188.034.416.242.416H3.57c.136 0 .26-.077.324-.201" mask="url(#b)"/>
        </g>
        <path fill="#014584" d="M9.61 20.1H3.685c-.21 0-.38-.17-.38-.38v-5.313c0-.21.17-.38.38-.38H9.61c2.824 0 4.085.8 4.085 3.036 0 2.237-1.234 3.037-4.085 3.037M3.69 5.892H9.53c2.154 0 3.25.921 3.25 2.619 0 1.705-1.092 2.619-3.25 2.619H3.69a.38.38 0 0 1-.38-.381V6.273c0-.21.17-.381.38-.381m10.172 6.337c1.371-.686 2.228-2.172 2.228-4C16.09 5.113 13.661 3 10.232 3H.381A.38.38 0 0 0 0 3.38V22.62c0 .21.17.381.38.381H9.8c4.714 0 7.2-2.029 7.2-6 0-3.877-3.14-4.771-3.14-4.771M29.61 20.1h-5.924a.38.38 0 0 1-.381-.38v-5.313c0-.21.17-.38.38-.38h5.925c2.824 0 4.085.8 4.085 3.036 0 2.237-1.234 3.037-4.085 3.037M23.69 5.892h5.841c2.154 0 3.25.921 3.25 2.619 0 1.705-1.092 2.619-3.25 2.619H23.69a.38.38 0 0 1-.38-.381V6.273c0-.21.17-.381.38-.381m10.172 6.337c1.371-.686 2.228-2.172 2.228-4C36.09 5.113 33.661 3 30.232 3h-9.851a.38.38 0 0 0-.381.38V22.62c0 .21.17.381.38.381h9.42c4.714 0 7.2-2.029 7.2-6 0-3.877-3.14-4.771-3.14-4.771"/>
    </g>
</svg>
